<mxfile host="app.diagrams.net" agent="Mozilla/5.0 (Macintosh; Intel Mac OS X 10_15_7) AppleWebKit/605.1.15 (KHTML, like Gecko) Version/18.0 Safari/605.1.15" version="27.0.6">
  <diagram name="第 1 页" id="YyKGzxugz1nQqAloFWmc">
    <mxGraphModel dx="1454" dy="996" grid="1" gridSize="10" guides="1" tooltips="1" connect="1" arrows="1" fold="1" page="1" pageScale="1" pageWidth="1169" pageHeight="827" math="0" shadow="0">
      <root>
        <mxCell id="0" />
        <mxCell id="1" parent="0" />
        <mxCell id="mZ6NCIyGoYxc7o3OTuCE-1" value="&lt;p style=&quot;margin: 0px; font-style: normal; font-variant-caps: normal; font-weight: normal; font-stretch: normal; line-height: normal; font-size-adjust: none; font-kerning: auto; font-variant-alternates: normal; font-variant-ligatures: normal; font-variant-numeric: normal; font-variant-east-asian: normal; font-variant-position: normal; font-variant-emoji: normal; font-feature-settings: normal; font-optical-sizing: auto; font-variation-settings: normal;&quot;&gt;用户界面层（UI）&lt;/p&gt;" style="shape=folder;fontStyle=1;tabWidth=110;tabHeight=30;tabPosition=left;html=1;boundedLbl=1;labelInHeader=1;container=1;collapsible=0;recursiveResize=0;whiteSpace=wrap;" vertex="1" parent="1">
          <mxGeometry x="30" y="50" width="510" height="170" as="geometry" />
        </mxCell>
        <mxCell id="mZ6NCIyGoYxc7o3OTuCE-8" value="&lt;p style=&quot;margin: 0px; font-style: normal; font-variant-caps: normal; font-weight: normal; font-stretch: normal; line-height: normal; font-size-adjust: none; font-kerning: auto; font-variant-alternates: normal; font-variant-ligatures: normal; font-variant-numeric: normal; font-variant-east-asian: normal; font-variant-position: normal; font-variant-emoji: normal; font-feature-settings: normal; font-optical-sizing: auto; font-variation-settings: normal;&quot;&gt;adminUl&lt;/p&gt;" style="shape=folder;fontStyle=1;tabWidth=110;tabHeight=30;tabPosition=left;html=1;boundedLbl=1;labelInHeader=1;container=1;collapsible=0;whiteSpace=wrap;" vertex="1" parent="mZ6NCIyGoYxc7o3OTuCE-1">
          <mxGeometry x="170" y="60" width="130" height="80" as="geometry" />
        </mxCell>
        <mxCell id="mZ6NCIyGoYxc7o3OTuCE-9" value="管理员界面" style="html=1;strokeColor=none;resizeWidth=1;resizeHeight=1;fillColor=none;part=1;connectable=0;allowArrows=0;deletable=0;whiteSpace=wrap;" vertex="1" parent="mZ6NCIyGoYxc7o3OTuCE-8">
          <mxGeometry width="130" height="56" relative="1" as="geometry">
            <mxPoint y="30" as="offset" />
          </mxGeometry>
        </mxCell>
        <mxCell id="mZ6NCIyGoYxc7o3OTuCE-6" value="&lt;p style=&quot;margin: 0px; font-style: normal; font-variant-caps: normal; font-weight: normal; font-stretch: normal; line-height: normal; font-size-adjust: none; font-kerning: auto; font-variant-alternates: normal; font-variant-ligatures: normal; font-variant-numeric: normal; font-variant-east-asian: normal; font-variant-position: normal; font-variant-emoji: normal; font-feature-settings: normal; font-optical-sizing: auto; font-variation-settings: normal;&quot;&gt;memberUI&lt;/p&gt;" style="shape=folder;fontStyle=1;tabWidth=110;tabHeight=30;tabPosition=left;html=1;boundedLbl=1;labelInHeader=1;container=1;collapsible=0;whiteSpace=wrap;" vertex="1" parent="1">
          <mxGeometry x="50" y="110" width="130" height="80" as="geometry" />
        </mxCell>
        <mxCell id="mZ6NCIyGoYxc7o3OTuCE-7" value="会员界面" style="html=1;strokeColor=none;resizeWidth=1;resizeHeight=1;fillColor=none;part=1;connectable=0;allowArrows=0;deletable=0;whiteSpace=wrap;" vertex="1" parent="mZ6NCIyGoYxc7o3OTuCE-6">
          <mxGeometry width="130" height="56" relative="1" as="geometry">
            <mxPoint y="30" as="offset" />
          </mxGeometry>
        </mxCell>
        <mxCell id="mZ6NCIyGoYxc7o3OTuCE-10" value="&lt;p style=&quot;margin: 0px; font-style: normal; font-variant-caps: normal; font-weight: normal; font-stretch: normal; line-height: normal; font-size-adjust: none; font-kerning: auto; font-variant-alternates: normal; font-variant-ligatures: normal; font-variant-numeric: normal; font-variant-east-asian: normal; font-variant-position: normal; font-variant-emoji: normal; font-feature-settings: normal; font-optical-sizing: auto; font-variation-settings: normal;&quot;&gt;staffUl&lt;/p&gt;" style="shape=folder;fontStyle=1;tabWidth=110;tabHeight=30;tabPosition=left;html=1;boundedLbl=1;labelInHeader=1;container=1;collapsible=0;whiteSpace=wrap;" vertex="1" parent="1">
          <mxGeometry x="350" y="110" width="130" height="80" as="geometry" />
        </mxCell>
        <mxCell id="mZ6NCIyGoYxc7o3OTuCE-11" value="员工界面" style="html=1;strokeColor=none;resizeWidth=1;resizeHeight=1;fillColor=none;part=1;connectable=0;allowArrows=0;deletable=0;whiteSpace=wrap;" vertex="1" parent="mZ6NCIyGoYxc7o3OTuCE-10">
          <mxGeometry width="130" height="56" relative="1" as="geometry">
            <mxPoint y="30" as="offset" />
          </mxGeometry>
        </mxCell>
      </root>
    </mxGraphModel>
  </diagram>
</mxfile>
